<svg xmlns="http://www.w3.org/2000/svg" viewBox="0 0 32 32">
  <defs>
    <linearGradient id="brainGrad" x1="0%" y1="0%" x2="100%" y2="100%">
      <stop offset="0%" stop-color="#FFB7C5"/>
      <stop offset="25%" stop-color="#FFDDB7"/>
      <stop offset="50%" stop-color="#B1C5FF"/>
      <stop offset="75%" stop-color="#4FABFF"/>
      <stop offset="100%" stop-color="#44ff88"/>
    </linearGradient>
    <filter id="glow">
      <feGaussianBlur stdDeviation="0.5" result="blur"/>
      <feMerge>
        <feMergeNode in="blur"/>
        <feMergeNode in="SourceGraphic"/>
      </feMerge>
    </filter>
  </defs>
  <rect width="32" height="32" fill="#000"/>
  <g transform="translate(4, 4)" filter="url(#glow)">
    <!-- Brain outline -->
    <path d="M12 2C8.5 2 6 4 5.5 6.5C3 7 1.5 9 1.5 11.5C1.5 13.5 2.5 15 4 16C3.5 17.5 4 19.5 5.5 21C7 22.5 9 23 11 22.5C11.5 23.5 12.5 24 14 24C15.5 24 16.5 23.5 17 22.5C19 23 21 22.5 22.5 21C24 19.5 24.5 17.5 24 16C25.5 15 26.5 13.5 26.5 11.5C26.5 9 25 7 22.5 6.5C22 4 19.5 2 16 2C14.5 2 13 2.5 12 2Z"
          fill="none"
          stroke="url(#brainGrad)"
          stroke-width="1.5"
          stroke-linecap="round"/>
    <!-- Brain folds - left hemisphere -->
    <path d="M8 10C9 9 10.5 9 12 10M6 14C7.5 13 9 13 11 14M7 18C8.5 17 10 17.5 11 19"
          fill="none"
          stroke="url(#brainGrad)"
          stroke-width="1"
          stroke-linecap="round"
          opacity="0.8"/>
    <!-- Brain folds - right hemisphere -->
    <path d="M16 10C17.5 9 19 9 20 10M17 14C18.5 13 20 13 22 14M17 19C18 17.5 19.5 17 21 18"
          fill="none"
          stroke="url(#brainGrad)"
          stroke-width="1"
          stroke-linecap="round"
          opacity="0.8"/>
    <!-- Center divide -->
    <path d="M14 4V22"
          fill="none"
          stroke="url(#brainGrad)"
          stroke-width="0.75"
          stroke-dasharray="2 1"
          opacity="0.5"/>
    <!-- Neural nodes -->
    <circle cx="9" cy="12" r="1" fill="#4FABFF" opacity="0.9"/>
    <circle cx="19" cy="12" r="1" fill="#FFB7C5" opacity="0.9"/>
    <circle cx="14" cy="8" r="0.75" fill="#44ff88" opacity="0.9"/>
    <circle cx="14" cy="16" r="0.75" fill="#FFDDB7" opacity="0.9"/>
  </g>
</svg>

